<svg width="641" height="484" viewBox="0 0 641 484" fill="none" xmlns="http://www.w3.org/2000/svg">
<path d="M55.939 391.342C55.939 385.819 60.4161 381.342 65.939 381.342H250.421C255.944 381.342 260.421 385.819 260.421 391.342V414.549H55.939V391.342Z" fill="#F5F5F5"/>
<path d="M70 410C70 404.477 74.4772 400 80 400H235C240.523 400 245 404.477 245 410V414H70V410Z" fill="#D9D9D9"/>
<path d="M69.9206 369.496C69.9206 363.973 74.3977 359.496 79.9206 359.496H236.439C241.962 359.496 246.439 363.973 246.439 369.496V376.099H69.9206V369.496Z" fill="#F5F5F5"/>
<path d="M119.296 345.287L8.75073 340.708L1.50761 323.738L119.296 345.287Z" fill="#F5F5F5"/>
<path d="M85.7202 343.942L9.06779 340.767L4.04539 329L85.7202 343.942Z" fill="#D9D9D9"/>
<path d="M192.472 348.773L303.013 327.314L296.686 339.397L192.472 348.773Z" fill="#F5F5F5"/>
<path d="M226.631 345.412L300.875 331L296.625 339.115L226.631 345.412Z" fill="#D9D9D9"/>
<path d="M117.467 321.591L34.382 291.772L34.382 276.997L117.467 321.591Z" fill="#F5F5F5"/>
<path d="M394.028 266.319C383.405 256.47 381.979 240.171 390.73 228.627V228.627C399.515 217.039 415.673 214.037 428.034 221.696L587.23 320.339C603.26 330.272 607.269 351.843 595.876 366.872L578.674 389.565C567.242 404.645 545.292 406.566 531.416 393.7L394.028 266.319Z" fill="#F5F5F5"/>
<rect x="314.335" y="224.389" width="83.7418" height="54.982" rx="27.491" transform="rotate(-52.8361 314.335 224.389)" fill="#F5F5F5"/>
<rect x="387.446" y="279.81" width="83.7418" height="27.9139" rx="13.957" transform="rotate(-52.8361 387.446 279.81)" fill="#F5F5F5"/>
<rect x="188.624" y="159.926" width="133.649" height="131.957" rx="55" transform="rotate(-52.8361 188.624 159.926)" fill="#F5F5F5"/>
<rect x="193.73" y="148.671" width="21.8411" height="137.417" rx="10" transform="rotate(-52.8361 193.73 148.671)" fill="#F5F5F5"/>
<rect x="185.983" y="181.487" width="15.2258" height="109.964" rx="7.61289" transform="rotate(-52.8361 185.983 181.487)" fill="#F5F5F5"/>
<rect x="280.517" y="56.7808" width="15.2258" height="109.964" rx="7.61289" transform="rotate(-52.8361 280.517 56.7808)" fill="#F5F5F5"/>
<rect x="245.407" y="80.5" width="22.7512" height="137.417" rx="10" transform="rotate(-52.8361 245.407 80.5)" fill="#F5F5F5"/>
<path d="M280.88 33.7046V33.7046C294.893 15.2195 321.415 11.3597 339.9 25.3723L382.162 57.4089C400.647 71.4215 404.095 98.0003 390.082 116.485V116.485L280.88 33.7046Z" fill="#F5F5F5"/>
<path d="M180.47 235.688C161.985 221.675 158.537 195.096 172.55 176.611V176.611L281.752 259.392V259.392C267.739 277.877 241.217 281.737 222.732 267.724L180.47 235.688Z" fill="#F5F5F5"/>
<path d="M180.47 235.688C161.985 221.675 158.537 195.096 172.55 176.611V176.611L281.752 259.392V259.392C267.739 277.877 241.217 281.737 222.732 267.724L180.47 235.688Z" fill="#F5F5F5"/>
</svg>
