<svg width="544" height="574" viewBox="0 0 544 574" fill="none" xmlns="http://www.w3.org/2000/svg">
<g filter="url(#filter0_d_39_3687)">
<path d="M111.767 406.91C111.079 406.94 110.498 406.407 110.468 405.719L94.8951 49.636C94.865 48.9483 95.3981 48.3665 96.0857 48.3365L284.918 40.0783C285.605 40.0482 286.187 40.5813 286.217 41.2689L301.79 397.352C301.82 398.04 301.287 398.621 300.599 398.652L111.767 406.91Z" fill="#F5F5F5"/>
</g>
<g filter="url(#filter1_d_39_3687)">
<path fill-rule="evenodd" clip-rule="evenodd" d="M95.8941 49.5923L111.467 405.675C111.473 405.811 111.588 405.917 111.723 405.911L300.555 397.652C300.691 397.647 300.797 397.532 300.791 397.396L285.218 41.3126C285.212 41.1767 285.097 41.0714 284.961 41.0774L96.1294 49.3355C95.9935 49.3414 95.8882 49.4564 95.8941 49.5923ZM110.468 405.719C110.498 406.407 111.079 406.94 111.767 406.91L300.599 398.652C301.287 398.621 301.82 398.04 301.79 397.352L286.217 41.2689C286.187 40.5813 285.605 40.0482 284.918 40.0783L96.0857 48.3365C95.3981 48.3665 94.865 48.9483 94.8951 49.636L110.468 405.719Z" fill="#373737"/>
</g>
<path fill-rule="evenodd" clip-rule="evenodd" d="M115.244 372.327C129.911 372.779 142.133 383.706 143.699 398.032L267.988 392.597C268.3 378.044 279.744 365.998 294.53 364.457L281.838 74.2475C267.12 74.0056 254.772 63.2206 252.991 48.959L128.64 54.3972C128.116 68.6154 116.977 80.3449 102.55 82.0585L115.244 372.327ZM243.407 221.739C244.458 245.769 225.268 266.023 200.678 267.098C176.089 268.173 155.204 249.672 154.153 225.643C153.102 201.613 172.292 181.36 196.882 180.284C221.471 179.209 242.356 197.71 243.407 221.739ZM113.202 373.173C113.232 373.857 113.809 374.385 114.494 374.39C129.07 374.49 141.14 385.671 141.766 399.981C141.771 400.099 141.871 400.191 141.989 400.186L269.88 394.593C269.998 394.588 270.089 394.487 270.084 394.369C269.437 379.585 281.252 367.061 296.473 366.395C296.594 366.39 296.689 366.287 296.683 366.166L283.834 72.357C283.829 72.2355 283.726 72.1417 283.604 72.147C268.884 72.7907 256.369 62.107 254.977 48.0306C254.91 47.3495 254.333 46.8213 253.649 46.8512L127.8 52.3549C127.116 52.3848 126.588 52.9614 126.58 53.6457C126.427 67.3205 115.641 78.7438 101.622 80.0688C100.941 80.1332 100.412 80.7104 100.442 81.3943L113.202 373.173ZM241.332 221.83C242.33 244.657 224.088 263.995 200.587 265.023C177.087 266.051 157.226 248.379 156.228 225.552C155.229 202.725 173.471 183.387 196.972 182.359C220.473 181.332 240.334 199.003 241.332 221.83Z" fill="#373737"/>
<path fill-rule="evenodd" clip-rule="evenodd" d="M119.689 369.596C119.005 369.588 118.428 369.06 118.398 368.376L106.037 85.7294C106.007 85.0456 106.535 84.4687 107.217 84.4014C120.362 83.1028 130.457 72.0839 130.603 58.8755C130.611 58.1911 131.14 57.6145 131.823 57.5846L250.124 52.411C250.808 52.3811 251.384 52.9094 251.452 53.5905C252.797 67.2121 264.581 77.559 278.422 76.9536V76.9536C278.536 76.9486 278.634 77.0369 278.639 77.1512L291.089 361.853C291.094 361.968 291.005 362.064 290.891 362.069V362.069C276.565 362.696 265.46 374.817 266.087 389.142V389.142C266.092 389.256 266.004 389.353 265.889 389.358L145.533 394.622C145.419 394.627 145.322 394.538 145.317 394.424V394.424C144.712 380.582 133.376 369.747 119.689 369.596ZM200.518 263.732C222.636 262.765 239.783 244.05 238.815 221.932C237.848 199.814 219.133 182.667 197.015 183.634C174.897 184.602 157.75 203.316 158.717 225.435C159.685 247.553 178.399 264.7 200.518 263.732Z" fill="#373737"/>
<path fill-rule="evenodd" clip-rule="evenodd" d="M106.452 85.7112L118.813 368.358C118.833 368.809 119.217 369.175 119.694 369.18C133.532 369.333 145.004 380.234 145.723 394.198L265.664 388.953C265.145 374.558 276.28 362.404 290.665 361.664L278.233 77.3769C264.26 77.8801 252.399 67.4031 251.038 53.6314C250.991 53.157 250.593 52.8063 250.142 52.8261L131.841 57.9997C131.391 58.0194 131.024 58.4035 131.019 58.8801C130.87 72.3003 120.613 83.4954 107.257 84.8148C106.783 84.8617 106.432 85.2603 106.452 85.7112ZM239.23 221.914C240.208 244.261 222.884 263.17 200.536 264.147C178.188 265.125 159.28 247.801 158.302 225.453C157.325 203.105 174.649 184.197 196.997 183.219C219.344 182.242 238.253 199.566 239.23 221.914ZM118.398 368.376C118.428 369.06 119.005 369.588 119.689 369.596C133.376 369.747 144.712 380.582 145.317 394.424C145.322 394.538 145.419 394.627 145.533 394.622L265.889 389.358C266.004 389.353 266.092 389.256 266.087 389.142C265.46 374.817 276.565 362.696 290.891 362.069C291.005 362.064 291.094 361.968 291.089 361.853L278.639 77.1512C278.634 77.0369 278.536 76.9486 278.422 76.9536C264.581 77.559 252.797 67.2121 251.452 53.5905C251.384 52.9094 250.808 52.3811 250.124 52.411L131.823 57.5846C131.14 57.6145 130.611 58.1911 130.603 58.8755C130.457 72.0839 120.362 83.1028 107.217 84.4014C106.535 84.4687 106.007 85.0456 106.037 85.7294L118.398 368.376ZM238.815 221.932C239.783 244.05 222.636 262.765 200.518 263.732C178.399 264.7 159.685 247.553 158.717 225.435C157.75 203.316 174.897 184.602 197.015 183.634C219.133 182.667 237.848 199.814 238.815 221.932Z" fill="#373737"/>
<path d="M228.895 225.053C228.967 225.735 228.475 226.348 227.792 226.421C227.118 226.494 226.413 226.567 225.676 226.642C225.13 226.697 224.686 227.104 224.565 227.639C223.874 230.69 222.793 233.434 221.321 235.871C219.879 238.257 218.355 240.319 216.747 242.056C216.398 242.433 215.847 242.54 215.374 242.336L207.169 238.804C206.229 238.4 206.133 237.065 206.933 236.426C207.963 235.604 208.955 234.63 209.908 233.505C210.968 232.187 211.889 230.823 212.672 229.411C213.129 228.586 212.47 227.624 211.529 227.687C210.339 227.766 209.133 227.846 207.909 227.927C206.255 227.999 204.602 228.072 202.948 228.144C202.422 228.167 201.968 228.519 201.806 229.021C201.505 229.956 201.19 230.867 200.861 231.752C200.435 232.899 200.042 233.828 199.683 234.538C199.125 235.648 198.333 236.855 197.307 238.158C196.28 239.462 195.008 240.582 193.489 241.516C191.97 242.451 190.215 242.962 188.226 243.049C185.415 243.172 182.879 242.653 180.618 241.493C178.314 240.335 176.422 238.681 174.941 236.532C173.651 234.659 172.793 232.519 172.368 230.113C172.259 229.498 171.741 229.028 171.116 229.016C170.568 229.007 170.066 228.995 169.61 228.981C168.95 228.962 168.429 228.421 168.422 227.76L168.349 220.591C168.341 219.863 168.957 219.283 169.685 219.314C170.244 219.337 170.853 219.355 171.51 219.366C172.12 219.377 172.641 218.939 172.76 218.341C173.192 216.165 173.761 214.16 174.468 212.328C175.112 210.657 175.768 209.227 176.433 208.041C176.73 207.512 177.379 207.31 177.939 207.544L185.749 210.8C186.558 211.137 186.783 212.193 186.273 212.906C185.869 213.472 185.48 214.101 185.105 214.794C184.597 215.681 184.158 216.633 183.79 217.648C183.506 218.431 184.119 219.222 184.951 219.199C186.088 219.169 187.264 219.127 188.477 219.074C190.024 219.006 191.603 218.937 193.213 218.867C193.722 218.845 194.165 218.514 194.343 218.036C194.577 217.407 194.832 216.766 195.108 216.114C195.457 215.187 195.892 214.235 196.413 213.257C197.249 211.571 198.283 209.963 199.517 208.433C200.706 206.905 202.19 205.646 203.966 204.657C205.743 203.667 207.907 203.117 210.459 203.005C212.448 202.918 214.483 203.372 216.563 204.366C218.598 205.319 220.399 206.868 221.966 209.014C223.354 210.877 224.319 213.22 224.864 216.041C224.984 216.668 225.537 217.128 226.175 217.1C226.42 217.089 226.651 217.079 226.867 217.07C227.524 217.041 228.091 217.528 228.16 218.182L228.895 225.053ZM187.128 232.808C188.311 232.756 189.361 231.933 190.276 230.338C190.727 229.554 190.08 228.641 189.177 228.678C187.528 228.745 185.936 228.801 184.401 228.849C183.588 228.874 183.002 229.666 183.362 230.395C184.193 232.077 185.448 232.882 187.128 232.808ZM210.327 213.365C209.202 213.414 208.229 213.956 207.408 214.99C207.021 215.477 206.669 215.977 206.35 216.49C205.862 217.277 206.494 218.221 207.419 218.181C208.378 218.139 209.329 218.097 210.272 218.056C211.315 217.981 212.329 217.908 213.314 217.836C214.069 217.78 214.612 217.063 214.348 216.353C213.577 214.277 212.237 213.281 210.327 213.365Z" fill="#373737"/>
<path fill-rule="evenodd" clip-rule="evenodd" d="M240.881 221.634C239.859 198.255 220.078 180.131 196.699 181.154C173.319 182.176 155.196 201.957 156.218 225.336C157.241 248.715 177.022 266.839 200.401 265.817C223.78 264.794 241.904 245.013 240.881 221.634ZM242.956 221.543C241.884 197.018 221.133 178.006 196.608 179.078C172.083 180.151 153.071 200.902 154.143 225.427C155.216 249.952 175.967 268.964 200.492 267.892C225.017 266.819 244.029 246.068 242.956 221.543Z" fill="#F5F5F5"/>
<path d="M192.524 85.7C207.881 85.0284 220.875 96.9331 221.546 112.29C222.218 127.647 210.313 140.64 194.956 141.312C179.599 141.984 166.606 130.079 165.934 114.722C165.263 99.3652 177.167 86.3716 192.524 85.7Z" fill="#F5F5F5"/>
<path d="M202.143 305.658C217.5 304.986 230.494 316.891 231.166 332.248C231.837 347.605 219.932 360.598 204.576 361.27C189.219 361.942 176.225 350.037 175.554 334.68C174.882 319.323 186.787 306.33 202.143 305.658Z" fill="#F5F5F5"/>
<path d="M192.597 87.3598C207.037 86.7283 219.255 97.9223 219.886 112.362C220.518 126.802 209.324 139.02 194.884 139.652C180.444 140.283 168.226 129.089 167.594 114.649C166.963 100.209 178.157 87.9913 192.597 87.3598Z" fill="#F5F5F5"/>
<path fill-rule="evenodd" clip-rule="evenodd" d="M217.811 112.453C217.23 99.1591 205.981 88.8535 192.687 89.4349C179.393 90.0163 169.088 101.264 169.669 114.558C170.251 127.852 181.499 138.158 194.793 137.577C208.087 136.995 218.392 125.747 217.811 112.453ZM219.886 112.362C219.255 97.9223 207.037 86.7283 192.597 87.3598C178.157 87.9913 166.963 100.209 167.594 114.649C168.226 129.089 180.444 140.283 194.884 139.652C209.324 139.02 220.518 126.802 219.886 112.362Z" fill="#373737"/>
<path d="M202.216 307.318C216.656 306.687 228.874 317.881 229.505 332.321C230.137 346.761 218.943 358.978 204.503 359.61C190.063 360.241 177.845 349.047 177.214 334.607C176.582 320.167 187.776 307.95 202.216 307.318Z" fill="#F5F5F5"/>
<path fill-rule="evenodd" clip-rule="evenodd" d="M227.43 332.411C226.849 319.117 215.601 308.812 202.307 309.393C189.013 309.975 178.707 321.223 179.289 334.517C179.87 347.811 191.118 358.116 204.412 357.535C217.706 356.954 228.012 345.705 227.43 332.411ZM229.505 332.321C228.874 317.881 216.656 306.687 202.216 307.318C187.776 307.95 176.582 320.167 177.214 334.607C177.845 349.047 190.063 360.241 204.503 359.61C218.943 358.978 230.137 346.761 229.505 332.321Z" fill="#373737"/>
<g filter="url(#filter2_d_39_3687)">
<path d="M91.8651 386.551C91.2545 386.233 91.0172 385.481 91.335 384.87L255.89 68.7069C256.208 68.0964 256.961 67.859 257.571 68.1768L425.233 155.441C425.844 155.759 426.081 156.511 425.764 157.122L261.208 473.285C260.89 473.896 260.138 474.133 259.527 473.815L91.8651 386.551Z" fill="#F5F5F5"/>
</g>
<g filter="url(#filter3_d_39_3687)">
<path fill-rule="evenodd" clip-rule="evenodd" d="M256.777 69.1686L92.222 385.332C92.1592 385.452 92.2061 385.601 92.3268 385.664L259.989 472.928C260.11 472.991 260.258 472.944 260.321 472.823L424.877 156.66C424.939 156.539 424.892 156.391 424.772 156.328L257.109 69.0638C256.989 69.001 256.84 69.0479 256.777 69.1686ZM91.335 384.87C91.0172 385.481 91.2545 386.233 91.8651 386.551L259.527 473.815C260.138 474.133 260.89 473.896 261.208 473.285L425.764 157.122C426.081 156.511 425.844 155.759 425.233 155.441L257.571 68.1768C256.961 67.859 256.208 68.0963 255.89 68.7069L91.335 384.87Z" fill="#373737"/>
</g>
<path fill-rule="evenodd" clip-rule="evenodd" d="M112.168 358.34C124.643 366.065 129.765 381.639 123.958 394.829L234.313 452.266C241.86 439.819 257.793 435.109 271.369 441.167L405.482 183.493C392.857 175.924 387.555 160.41 393.144 147.169L282.733 89.7026C275.171 101.754 259.659 106.342 246.309 100.613L112.168 358.34ZM298.454 292.009C287.349 313.344 260.603 321.289 238.77 309.926C216.937 298.562 208.101 272.098 219.206 250.762C230.31 229.427 257.056 221.481 278.889 232.845C300.722 244.208 309.558 270.673 298.454 292.009ZM109.977 358.051C109.66 358.659 109.896 359.405 110.486 359.752C123.06 367.126 127.922 382.845 121.309 395.55C121.255 395.655 121.295 395.784 121.4 395.839L234.953 454.941C235.058 454.995 235.187 454.954 235.241 454.849C242.074 441.722 258.568 436.783 272.082 443.817C272.19 443.873 272.323 443.832 272.379 443.724L408.156 182.854C408.212 182.746 408.17 182.613 408.062 182.557C394.992 175.754 389.495 160.244 395.328 147.358C395.61 146.734 395.375 145.988 394.768 145.672L283.027 87.5141C282.42 87.1981 281.674 87.4332 281.326 88.022C274.356 99.7884 259.303 104.288 246.5 98.4261C245.877 98.1411 245.131 98.3767 244.815 98.9839L109.977 358.051ZM296.611 291.05C286.062 311.318 260.595 318.944 239.729 308.084C218.863 297.223 210.499 271.989 221.048 251.721C231.597 231.453 257.064 223.827 277.93 234.687C298.796 245.548 307.16 270.782 296.611 291.05Z" fill="#373737"/>
<path fill-rule="evenodd" clip-rule="evenodd" d="M117.383 358.197C116.794 357.848 116.559 357.102 116.875 356.495L247.493 105.536C247.809 104.929 248.555 104.693 249.178 104.975C261.212 110.423 275.464 105.928 282.195 94.5627C282.544 93.9737 283.29 93.7387 283.897 94.0547L388.935 148.724C389.542 149.04 389.777 149.786 389.495 150.41C383.85 162.879 388.881 177.732 401.171 184.128V184.128C401.272 184.181 401.312 184.306 401.259 184.407L269.691 437.192C269.638 437.294 269.513 437.333 269.411 437.28V437.28C256.692 430.66 241.014 435.604 234.394 448.323V448.323C234.341 448.425 234.216 448.465 234.114 448.412L127.251 392.792C127.15 392.74 127.111 392.614 127.164 392.513V392.513C133.56 380.223 129.16 365.172 117.383 358.197ZM240.314 306.931C259.953 317.153 284.16 309.518 294.381 289.88C304.603 270.241 296.968 246.034 277.33 235.813C257.691 225.591 233.484 233.226 223.263 252.864C213.041 272.503 220.675 296.71 240.314 306.931Z" fill="#373737"/>
<path fill-rule="evenodd" clip-rule="evenodd" d="M247.862 105.727L117.243 356.687C117.035 357.087 117.184 357.597 117.594 357.84C129.502 364.891 133.987 380.068 127.627 392.52L234.122 447.948C240.87 435.222 256.59 430.265 269.418 436.816L400.795 184.4C388.442 177.849 383.409 162.846 389.117 150.239C389.313 149.804 389.143 149.301 388.743 149.093L283.705 94.4232C283.305 94.2148 282.795 94.3643 282.552 94.7744C275.714 106.322 261.233 110.889 249.007 105.354C248.573 105.157 248.07 105.327 247.862 105.727ZM294.75 290.071C284.422 309.914 259.965 317.627 240.122 307.3C220.28 296.972 212.567 272.515 222.894 252.673C233.222 232.83 257.679 225.117 277.521 235.444C297.364 245.772 305.077 270.229 294.75 290.071ZM116.875 356.495C116.559 357.102 116.794 357.848 117.383 358.197C129.16 365.172 133.56 380.223 127.164 392.513C127.111 392.614 127.15 392.74 127.251 392.792L234.114 448.412C234.216 448.465 234.341 448.425 234.394 448.323C241.014 435.604 256.692 430.66 269.411 437.28C269.513 437.333 269.638 437.294 269.691 437.192L401.259 184.407C401.312 184.306 401.272 184.181 401.171 184.128C388.881 177.732 383.85 162.879 389.495 150.41C389.777 149.786 389.542 149.04 388.935 148.724L283.897 94.0547C283.29 93.7387 282.544 93.9737 282.195 94.5627C275.464 105.928 261.212 110.423 249.178 104.975C248.555 104.693 247.809 104.929 247.493 105.536L116.875 356.495ZM294.381 289.88C284.16 309.518 259.953 317.153 240.314 306.931C220.675 296.71 213.041 272.503 223.263 252.864C233.484 233.226 257.691 225.591 277.33 235.813C296.968 246.034 304.603 270.241 294.381 289.88Z" fill="#373737"/>
<path d="M284.229 287.622C283.951 288.249 283.218 288.534 282.59 288.256C281.97 287.982 281.323 287.692 280.647 287.389C280.146 287.164 279.559 287.294 279.186 287.697C277.063 289.994 274.754 291.83 272.261 293.204C269.82 294.55 267.468 295.573 265.208 296.273C264.716 296.426 264.186 296.242 263.878 295.83L258.538 288.668C257.926 287.848 258.511 286.644 259.523 286.491C260.827 286.294 262.172 285.946 263.56 285.448C265.137 284.837 266.617 284.116 268 283.285C268.809 282.799 268.719 281.636 267.873 281.22C266.803 280.694 265.718 280.16 264.618 279.618C263.149 278.854 261.681 278.09 260.213 277.326C259.746 277.082 259.176 277.16 258.786 277.514C258.057 278.174 257.329 278.805 256.602 279.407C255.659 280.187 254.854 280.795 254.189 281.231C253.15 281.913 251.861 282.562 250.32 283.178C248.779 283.794 247.118 284.127 245.335 284.177C243.552 284.227 241.777 283.792 240.011 282.872C237.515 281.573 235.578 279.856 234.2 277.721C232.784 275.566 231.972 273.188 231.764 270.586C231.583 268.319 231.91 266.037 232.745 263.741C232.959 263.154 232.745 262.487 232.209 262.165C231.74 261.883 231.311 261.622 230.923 261.382C230.361 261.035 230.18 260.306 230.505 259.731L234.026 253.485C234.383 252.851 235.207 252.657 235.822 253.047C236.294 253.347 236.812 253.666 237.376 254.005C237.898 254.319 238.569 254.2 238.97 253.742C240.433 252.073 241.928 250.622 243.456 249.389C244.85 248.263 246.132 247.353 247.302 246.659C247.824 246.349 248.487 246.499 248.855 246.981L253.99 253.705C254.522 254.402 254.189 255.429 253.391 255.792C252.758 256.08 252.107 256.43 251.436 256.842C250.552 257.357 249.696 257.962 248.869 258.657C248.232 259.193 248.368 260.184 249.099 260.581C250.099 261.123 251.138 261.675 252.216 262.236C253.59 262.951 254.991 263.68 256.421 264.424C256.873 264.659 257.422 264.594 257.815 264.269C258.332 263.842 258.873 263.414 259.438 262.987C260.204 262.359 261.057 261.752 261.997 261.166C263.564 260.123 265.264 259.248 267.097 258.54C268.891 257.811 270.805 257.463 272.838 257.494C274.872 257.526 277.021 258.131 279.287 259.31C281.053 260.23 282.589 261.64 283.893 263.541C285.179 265.384 285.964 267.626 286.248 270.268C286.518 272.575 286.183 275.087 285.244 277.802C285.035 278.405 285.283 279.08 285.85 279.375C286.068 279.488 286.273 279.595 286.464 279.694C287.048 279.998 287.295 280.703 287.028 281.305L284.229 287.622ZM244.18 273.455C245.231 274.002 246.552 273.813 248.142 272.89C248.924 272.436 248.821 271.323 248.02 270.902C246.558 270.136 245.151 269.389 243.798 268.662C243.082 268.277 242.178 268.671 242.125 269.482C242.004 271.354 242.689 272.679 244.18 273.455ZM273.993 268.216C272.994 267.696 271.881 267.679 270.652 268.164C270.074 268.393 269.518 268.649 268.986 268.935C268.17 269.372 268.246 270.505 269.067 270.933C269.918 271.376 270.762 271.815 271.6 272.251C272.541 272.708 273.455 273.151 274.344 273.581C275.026 273.911 275.855 273.561 275.981 272.814C276.351 270.631 275.688 269.099 273.993 268.216Z" fill="#373737"/>
<path fill-rule="evenodd" clip-rule="evenodd" d="M296.319 290.654C307.123 269.896 299.054 244.31 278.296 233.506C257.538 222.702 231.952 230.771 221.148 251.529C210.344 272.288 218.413 297.874 239.171 308.678C259.929 319.482 285.515 311.413 296.319 290.654ZM298.162 291.613C309.495 269.838 301.031 242.997 279.255 231.664C257.479 220.33 230.639 228.795 219.305 250.57C207.972 272.346 216.436 299.187 238.212 310.52C259.988 321.854 286.828 313.389 298.162 291.613Z" fill="#F5F5F5"/>
<path d="M322.408 148.754C336.043 155.85 341.343 172.657 334.246 186.292C327.15 199.928 310.343 205.228 296.708 198.131C283.073 191.034 277.772 174.228 284.869 160.593C291.966 146.957 308.772 141.657 322.408 148.754Z" fill="#F5F5F5"/>
<path d="M220.759 344.053C234.394 351.15 239.695 367.956 232.598 381.591C225.501 395.227 208.695 400.527 195.059 393.43C181.424 386.333 176.124 369.527 183.221 355.892C190.317 342.256 207.124 336.956 220.759 344.053Z" fill="#F5F5F5"/>
<path d="M321.641 150.227C334.462 156.901 339.446 172.704 332.773 185.525C326.099 198.346 310.296 203.33 297.475 196.657C284.654 189.984 279.67 174.181 286.343 161.359C293.016 148.538 308.819 143.554 321.641 150.227Z" fill="#F5F5F5"/>
<path fill-rule="evenodd" clip-rule="evenodd" d="M330.93 184.566C337.074 172.762 332.485 158.213 320.682 152.07C308.878 145.926 294.329 150.515 288.185 162.318C282.042 174.122 286.63 188.671 298.434 194.815C310.238 200.958 324.787 196.37 330.93 184.566ZM332.773 185.525C339.446 172.704 334.462 156.901 321.641 150.227C308.819 143.554 293.016 148.538 286.343 161.359C279.67 174.181 284.654 189.984 297.475 196.657C310.296 203.33 326.099 198.346 332.773 185.525Z" fill="#373737"/>
<path d="M219.992 345.527C232.813 352.2 237.797 368.003 231.124 380.824C224.451 393.645 208.648 398.629 195.827 391.956C183.005 385.283 178.021 369.48 184.695 356.659C191.368 343.838 207.171 338.854 219.992 345.527Z" fill="#F5F5F5"/>
<path fill-rule="evenodd" clip-rule="evenodd" d="M229.282 379.865C235.425 368.062 230.837 353.513 219.033 347.369C207.23 341.226 192.681 345.814 186.537 357.618C180.394 369.421 184.982 383.97 196.786 390.114C208.589 396.257 223.138 391.669 229.282 379.865ZM231.124 380.824C237.797 368.003 232.813 352.2 219.992 345.527C207.171 338.854 191.368 343.838 184.695 356.659C178.021 369.48 183.005 385.283 195.827 391.956C208.648 398.629 224.451 393.645 231.124 380.824Z" fill="#373737"/>
<g filter="url(#filter4_d_39_3687)">
<path d="M94.3045 369.25C93.8955 368.696 94.0128 367.916 94.5664 367.507L381.259 155.74C381.812 155.331 382.593 155.449 383.002 156.002L495.302 308.036C495.711 308.59 495.594 309.37 495.04 309.779L208.348 521.546C207.794 521.955 207.014 521.837 206.605 521.284L94.3045 369.25Z" fill="#F5F5F5"/>
</g>
<g filter="url(#filter5_d_39_3687)">
<path fill-rule="evenodd" clip-rule="evenodd" d="M381.853 156.545L95.1606 368.311C95.0512 368.392 95.028 368.546 95.1088 368.656L207.409 520.69C207.49 520.799 207.644 520.822 207.754 520.741L494.446 308.975C494.555 308.894 494.579 308.74 494.498 308.63L382.197 156.596C382.117 156.487 381.962 156.464 381.853 156.545ZM94.5664 367.507C94.0128 367.916 93.8955 368.696 94.3045 369.25L206.605 521.284C207.014 521.837 207.794 521.955 208.348 521.546L495.04 309.779C495.594 309.37 495.711 308.59 495.302 308.036L383.002 156.002C382.593 155.449 381.812 155.331 381.259 155.74L94.5664 367.507Z" fill="#373737"/>
</g>
<path fill-rule="evenodd" clip-rule="evenodd" d="M124.934 352.822C132.749 365.242 130.51 381.482 119.501 390.782L193.417 490.85C205.664 482.982 222.047 485.749 231.582 497.153L465.237 324.563C457.219 312.219 459.27 295.952 470.106 286.511L396.153 186.392C384.066 193.898 368.115 191.207 358.637 180.196L124.934 352.822ZM321.424 375.047C302.078 389.337 274.56 384.728 259.936 364.931C245.312 345.133 248.997 317.476 268.344 303.185C287.691 288.895 315.208 293.504 329.832 313.301C344.456 333.099 340.771 360.756 321.424 375.047ZM123.092 351.601C122.542 352.007 122.425 352.781 122.804 353.352C130.861 365.499 128.326 381.756 116.805 390.266C116.709 390.337 116.689 390.471 116.759 390.566L192.817 493.534C192.887 493.629 193.021 493.649 193.116 493.579C205.02 484.786 222.007 487.593 231.059 499.848C231.131 499.945 231.269 499.967 231.367 499.894L467.92 325.163C468.018 325.091 468.038 324.953 467.966 324.855C459.212 313.003 461.086 296.655 471.986 287.64C472.513 287.204 472.629 286.43 472.222 285.88L397.378 184.555C396.972 184.005 396.198 183.888 395.626 184.264C384.197 191.774 368.697 189.205 359.77 178.316C359.336 177.786 358.562 177.67 358.011 178.077L123.092 351.601ZM320.19 373.376C301.812 386.951 275.583 382.618 261.607 363.696C247.631 344.775 251.199 318.432 269.578 304.856C287.956 291.281 314.185 295.614 328.161 314.536C342.138 333.457 338.569 359.8 320.19 373.376Z" fill="#373737"/>
<path fill-rule="evenodd" clip-rule="evenodd" d="M129.682 354.984C129.306 354.412 129.423 353.639 129.973 353.232L357.54 185.139C358.09 184.732 358.864 184.848 359.3 185.376C367.718 195.555 382.496 197.777 393.535 190.522C394.107 190.146 394.88 190.262 395.287 190.813L465.642 286.06C466.048 286.61 465.932 287.384 465.405 287.82C454.856 296.543 452.853 312.096 461.085 323.24V323.24C461.153 323.332 461.134 323.462 461.042 323.53L231.82 492.846C231.728 492.914 231.599 492.894 231.531 492.802V492.802C223.011 481.268 206.755 478.824 195.221 487.344V487.344C195.129 487.412 194.999 487.393 194.931 487.301L123.354 390.399C123.286 390.307 123.306 390.177 123.398 390.109V390.109C134.542 381.877 137.2 366.423 129.682 354.984ZM262.639 362.918C275.793 380.726 300.893 384.499 318.701 371.345C336.509 358.191 340.282 333.091 327.128 315.283C313.974 297.475 288.874 293.702 271.066 306.856C253.257 320.01 249.484 345.11 262.639 362.918Z" fill="#373737"/>
<path fill-rule="evenodd" clip-rule="evenodd" d="M357.786 185.473L130.22 353.566C129.857 353.834 129.767 354.358 130.029 354.756C137.63 366.321 134.994 381.925 123.811 390.319L195.142 486.887C206.793 478.418 223.094 480.868 231.741 492.388L460.628 323.319C452.408 312.009 454.475 296.319 465.14 287.5C465.507 287.196 465.576 286.67 465.307 286.307L394.953 191.06C394.685 190.697 394.161 190.607 393.763 190.869C382.547 198.24 367.533 195.983 358.98 185.641C358.676 185.273 358.15 185.205 357.786 185.473ZM318.948 371.679C300.955 384.97 275.595 381.158 262.304 363.165C249.014 345.172 252.826 319.812 270.819 306.522C288.811 293.232 314.171 297.043 327.462 315.036C340.752 333.029 336.94 358.389 318.948 371.679ZM129.973 353.232C129.423 353.639 129.306 354.412 129.682 354.984C137.2 366.423 134.542 381.877 123.398 390.109C123.306 390.177 123.286 390.307 123.354 390.399L194.931 487.301C194.999 487.393 195.129 487.412 195.221 487.344C206.755 478.824 223.011 481.268 231.531 492.802C231.599 492.894 231.728 492.914 231.82 492.846L461.042 323.53C461.134 323.462 461.153 323.332 461.085 323.24C452.853 312.096 454.856 296.543 465.405 287.82C465.932 287.384 466.048 286.61 465.642 286.06L395.287 190.813C394.88 190.262 394.107 190.146 393.535 190.522C382.496 197.777 367.718 195.555 359.3 185.376C358.864 184.848 358.09 184.732 357.54 185.139L129.973 353.232ZM318.701 371.345C300.893 384.499 275.793 380.726 262.639 362.918C249.484 345.11 253.257 320.01 271.066 306.856C288.874 293.702 313.974 297.475 327.128 315.283C340.282 333.091 336.509 358.191 318.701 371.345Z" fill="#373737"/>
<path d="M310.572 364.858C310.046 365.3 309.262 365.234 308.821 364.708C308.385 364.189 307.93 363.645 307.456 363.076C307.105 362.654 306.52 362.512 306.008 362.71C303.092 363.842 300.212 364.477 297.368 364.617C294.584 364.753 292.022 364.64 289.683 364.276C289.175 364.197 288.779 363.8 288.684 363.294L287.032 354.515C286.842 353.509 287.896 352.684 288.873 352.991C290.131 353.386 291.492 353.665 292.957 353.827C294.643 353.971 296.289 353.974 297.897 353.834C298.837 353.753 299.267 352.669 298.689 351.923C297.959 350.981 297.219 350.024 296.468 349.054C295.485 347.723 294.501 346.392 293.518 345.06C293.205 344.637 292.659 344.457 292.153 344.603C291.209 344.876 290.278 345.123 289.36 345.344C288.17 345.631 287.18 345.824 286.391 345.923C285.158 346.079 283.715 346.096 282.06 345.973C280.405 345.85 278.766 345.419 277.143 344.681C275.519 343.943 274.115 342.773 272.932 341.171C271.26 338.907 270.274 336.514 269.974 333.991C269.649 331.433 269.964 328.94 270.92 326.511C271.753 324.395 273.049 322.488 274.807 320.792C275.257 320.358 275.358 319.666 275.018 319.141C274.72 318.681 274.45 318.259 274.206 317.872C273.854 317.314 274.012 316.58 274.556 316.205L280.462 312.141C281.062 311.728 281.887 311.915 282.268 312.536C282.561 313.013 282.886 313.527 283.244 314.079C283.575 314.591 284.23 314.779 284.792 314.543C286.839 313.687 288.819 313.04 290.733 312.603C292.48 312.204 294.032 311.949 295.388 311.839C295.992 311.79 296.522 312.216 296.641 312.81L298.301 321.107C298.473 321.967 297.723 322.743 296.846 322.718C296.152 322.699 295.413 322.728 294.629 322.803C293.609 322.878 292.574 323.045 291.526 323.306C290.718 323.508 290.405 324.458 290.888 325.136C291.548 326.062 292.239 327.014 292.961 327.991C293.881 329.237 294.82 330.508 295.777 331.804C296.08 332.214 296.602 332.397 297.098 332.277C297.75 332.12 298.424 331.974 299.119 331.839C300.083 331.611 301.116 331.44 302.218 331.326C304.084 331.078 305.995 331.038 307.953 331.206C309.885 331.34 311.758 331.868 313.57 332.789C315.383 333.71 317.048 335.198 318.566 337.253C319.749 338.854 320.509 340.796 320.846 343.077C321.192 345.297 320.912 347.656 320.008 350.154C319.237 352.346 317.833 354.455 315.796 356.482C315.344 356.932 315.271 357.647 315.65 358.161C315.796 358.358 315.933 358.544 316.062 358.718C316.453 359.247 316.365 359.989 315.861 360.412L310.572 364.858ZM280.814 334.541C281.518 335.494 282.787 335.905 284.621 335.774C285.524 335.709 285.92 334.664 285.385 333.934C284.409 332.604 283.472 331.315 282.576 330.068C282.101 329.407 281.117 329.364 280.713 330.07C279.782 331.698 279.815 333.189 280.814 334.541ZM309.899 342.928C309.23 342.023 308.237 341.518 306.92 341.415C306.3 341.366 305.688 341.353 305.085 341.375C304.16 341.409 303.73 342.461 304.28 343.206C304.85 343.977 305.415 344.743 305.977 345.502C306.621 346.326 307.248 347.126 307.858 347.903C308.325 348.498 309.224 348.548 309.665 347.933C310.956 346.134 311.034 344.466 309.899 342.928Z" fill="#373737"/>
<path fill-rule="evenodd" clip-rule="evenodd" d="M320.102 372.892C338.925 358.989 342.913 332.458 329.009 313.635C315.105 294.812 288.575 290.824 269.752 304.728C250.929 318.632 246.941 345.162 260.844 363.985C274.748 382.808 301.279 386.796 320.102 372.892ZM321.336 374.563C341.082 359.978 345.265 332.147 330.68 312.401C316.094 292.655 288.263 288.472 268.518 303.057C248.772 317.643 244.588 345.473 259.174 365.219C273.759 384.965 301.59 389.149 321.336 374.563Z" fill="#F5F5F5"/>
<path d="M405.861 256.868C414.994 269.232 412.375 286.659 400.01 295.792C387.646 304.925 370.219 302.305 361.086 289.941C351.954 277.577 354.573 260.15 366.937 251.017C379.302 241.884 396.728 244.504 405.861 256.868Z" fill="#F5F5F5"/>
<path d="M228.767 387.68C237.9 400.044 235.28 417.471 222.916 426.603C210.552 435.736 193.125 433.117 183.992 420.753C174.859 408.388 177.479 390.962 189.843 381.829C202.207 372.696 219.634 375.315 228.767 387.68Z" fill="#F5F5F5"/>
<path d="M404.525 257.855C413.112 269.481 410.649 285.868 399.023 294.455C387.397 303.043 371.011 300.58 362.423 288.954C353.836 277.328 356.299 260.941 367.925 252.354C379.551 243.766 395.937 246.229 404.525 257.855Z" fill="#F5F5F5"/>
<path fill-rule="evenodd" clip-rule="evenodd" d="M397.789 292.784C408.493 284.878 410.76 269.792 402.854 259.089C394.948 248.386 379.862 246.118 369.159 254.024C358.455 261.93 356.188 277.016 364.094 287.72C372 298.423 387.086 300.691 397.789 292.784ZM399.023 294.455C410.649 285.868 413.112 269.481 404.525 257.855C395.937 246.229 379.551 243.766 367.925 252.354C356.299 260.941 353.836 277.328 362.423 288.954C371.011 300.58 387.397 303.043 399.023 294.455Z" fill="#373737"/>
<path d="M227.43 388.667C236.018 400.293 233.555 416.679 221.929 425.267C210.303 433.854 193.916 431.391 185.329 419.765C176.741 408.139 179.204 391.753 190.83 383.165C202.456 374.577 218.843 377.041 227.43 388.667Z" fill="#F5F5F5"/>
<path fill-rule="evenodd" clip-rule="evenodd" d="M220.695 423.596C231.398 415.69 233.666 400.604 225.76 389.901C217.854 379.197 202.768 376.93 192.064 384.836C181.361 392.742 179.093 407.828 186.999 418.531C194.906 429.234 209.991 431.502 220.695 423.596ZM221.929 425.267C233.555 416.679 236.018 400.293 227.43 388.667C218.843 377.041 202.456 374.577 190.83 383.165C179.204 391.753 176.741 408.139 185.329 419.765C193.916 431.391 210.303 433.854 221.929 425.267Z" fill="#373737"/>
<defs>
<filter id="filter0_d_39_3687" x="90.8939" y="40.0771" width="214.897" height="374.834" filterUnits="userSpaceOnUse" color-interpolation-filters="sRGB">
<feFlood flood-opacity="0" result="BackgroundImageFix"/>
<feColorMatrix in="SourceAlpha" type="matrix" values="0 0 0 0 0 0 0 0 0 0 0 0 0 0 0 0 0 0 127 0" result="hardAlpha"/>
<feOffset dy="4"/>
<feGaussianBlur stdDeviation="2"/>
<feComposite in2="hardAlpha" operator="out"/>
<feColorMatrix type="matrix" values="0 0 0 0 0 0 0 0 0 0 0 0 0 0 0 0 0 0 0.25 0"/>
<feBlend mode="normal" in2="BackgroundImageFix" result="effect1_dropShadow_39_3687"/>
<feBlend mode="normal" in="SourceGraphic" in2="effect1_dropShadow_39_3687" result="shape"/>
</filter>
<filter id="filter1_d_39_3687" x="90.8939" y="40.0771" width="214.897" height="374.834" filterUnits="userSpaceOnUse" color-interpolation-filters="sRGB">
<feFlood flood-opacity="0" result="BackgroundImageFix"/>
<feColorMatrix in="SourceAlpha" type="matrix" values="0 0 0 0 0 0 0 0 0 0 0 0 0 0 0 0 0 0 127 0" result="hardAlpha"/>
<feOffset dy="4"/>
<feGaussianBlur stdDeviation="2"/>
<feComposite in2="hardAlpha" operator="out"/>
<feColorMatrix type="matrix" values="0 0 0 0 0 0 0 0 0 0 0 0 0 0 0 0 0 0 0.25 0"/>
<feBlend mode="normal" in2="BackgroundImageFix" result="effect1_dropShadow_39_3687"/>
<feBlend mode="normal" in="SourceGraphic" in2="effect1_dropShadow_39_3687" result="shape"/>
</filter>
<filter id="filter2_d_39_3687" x="87.194" y="68.0356" width="342.711" height="413.921" filterUnits="userSpaceOnUse" color-interpolation-filters="sRGB">
<feFlood flood-opacity="0" result="BackgroundImageFix"/>
<feColorMatrix in="SourceAlpha" type="matrix" values="0 0 0 0 0 0 0 0 0 0 0 0 0 0 0 0 0 0 127 0" result="hardAlpha"/>
<feOffset dy="4"/>
<feGaussianBlur stdDeviation="2"/>
<feComposite in2="hardAlpha" operator="out"/>
<feColorMatrix type="matrix" values="0 0 0 0 0 0 0 0 0 0 0 0 0 0 0 0 0 0 0.25 0"/>
<feBlend mode="normal" in2="BackgroundImageFix" result="effect1_dropShadow_39_3687"/>
<feBlend mode="normal" in="SourceGraphic" in2="effect1_dropShadow_39_3687" result="shape"/>
</filter>
<filter id="filter3_d_39_3687" x="87.194" y="68.0356" width="342.711" height="413.921" filterUnits="userSpaceOnUse" color-interpolation-filters="sRGB">
<feFlood flood-opacity="0" result="BackgroundImageFix"/>
<feColorMatrix in="SourceAlpha" type="matrix" values="0 0 0 0 0 0 0 0 0 0 0 0 0 0 0 0 0 0 127 0" result="hardAlpha"/>
<feOffset dy="4"/>
<feGaussianBlur stdDeviation="2"/>
<feComposite in2="hardAlpha" operator="out"/>
<feColorMatrix type="matrix" values="0 0 0 0 0 0 0 0 0 0 0 0 0 0 0 0 0 0 0.25 0"/>
<feBlend mode="normal" in2="BackgroundImageFix" result="effect1_dropShadow_39_3687"/>
<feBlend mode="normal" in="SourceGraphic" in2="effect1_dropShadow_39_3687" result="shape"/>
</filter>
<filter id="filter4_d_39_3687" x="90.0606" y="155.496" width="409.486" height="374.293" filterUnits="userSpaceOnUse" color-interpolation-filters="sRGB">
<feFlood flood-opacity="0" result="BackgroundImageFix"/>
<feColorMatrix in="SourceAlpha" type="matrix" values="0 0 0 0 0 0 0 0 0 0 0 0 0 0 0 0 0 0 127 0" result="hardAlpha"/>
<feOffset dy="4"/>
<feGaussianBlur stdDeviation="2"/>
<feComposite in2="hardAlpha" operator="out"/>
<feColorMatrix type="matrix" values="0 0 0 0 0 0 0 0 0 0 0 0 0 0 0 0 0 0 0.25 0"/>
<feBlend mode="normal" in2="BackgroundImageFix" result="effect1_dropShadow_39_3687"/>
<feBlend mode="normal" in="SourceGraphic" in2="effect1_dropShadow_39_3687" result="shape"/>
</filter>
<filter id="filter5_d_39_3687" x="90.0606" y="155.496" width="409.486" height="374.293" filterUnits="userSpaceOnUse" color-interpolation-filters="sRGB">
<feFlood flood-opacity="0" result="BackgroundImageFix"/>
<feColorMatrix in="SourceAlpha" type="matrix" values="0 0 0 0 0 0 0 0 0 0 0 0 0 0 0 0 0 0 127 0" result="hardAlpha"/>
<feOffset dy="4"/>
<feGaussianBlur stdDeviation="2"/>
<feComposite in2="hardAlpha" operator="out"/>
<feColorMatrix type="matrix" values="0 0 0 0 0 0 0 0 0 0 0 0 0 0 0 0 0 0 0.25 0"/>
<feBlend mode="normal" in2="BackgroundImageFix" result="effect1_dropShadow_39_3687"/>
<feBlend mode="normal" in="SourceGraphic" in2="effect1_dropShadow_39_3687" result="shape"/>
</filter>
</defs>
</svg>
